<svg xmlns="http://www.w3.org/2000/svg" width="120" height="120" viewBox="0 0 120 120">
  <defs>
    <style>
      .cls-1 {
        fill: #f1f1f2;
      }
    </style>
  </defs>
  <g id="Group_5" data-name="Group 5" transform="translate(-1.5 -1.5)">
    <path id="Path_10" data-name="Path 10" class="cls-1" d="M61.5,1.5a60,60,0,1,0,60,60A60.136,60.136,0,0,0,61.5,1.5Zm0,116.289A56.289,56.289,0,1,1,117.789,61.5,56.335,56.335,0,0,1,61.5,117.789Z" transform="translate(0 0)"/>
    <path id="Path_11" data-name="Path 11" class="cls-1" d="M69.4,47.4,40.2,30.5a2.724,2.724,0,0,0-3,0,3.029,3.029,0,0,0-1.5,2.7V66.8a3.282,3.282,0,0,0,1.5,2.7,2.3,2.3,0,0,0,1.4.4,2.822,2.822,0,0,0,1.5-.4L69.3,52.7a2.813,2.813,0,0,0,1.3-2.4A3.179,3.179,0,0,0,69.4,47.4Z" transform="translate(12.669 11.49)"/>
  </g>
</svg>
